<?xml version="1.0" encoding="utf-8"?>
<!-- Generator: Adobe Illustrator 12.0.0, SVG Export Plug-In . SVG Version: 6.00 Build 51448)  -->
<!DOCTYPE svg PUBLIC "-//W3C//DTD SVG 1.1//EN" "http://www.w3.org/Graphics/SVG/1.1/DTD/svg11.dtd" [
	<!ENTITY ns_svg "http://www.w3.org/2000/svg">
	<!ENTITY ns_xlink "http://www.w3.org/1999/xlink">
]>
<svg  version="1.1" id="Vrstva_1" xmlns="&ns_svg;" xmlns:xlink="&ns_xlink;" width="110.52" height="52.704"
	 viewBox="0 0 110.52 52.704" overflow="visible" enable-background="new 0 0 110.52 52.704" xml:space="preserve">
<g>
	<g>
		<g>
			<path fill="#8D2D44" d="M83.808,39.312V37.8c0.145-0.072,0.288-0.072,0.433-0.144c0.863-0.288,1.296-0.864,1.296-1.8
				c0-0.864-0.36-1.44-1.152-1.728c-0.217-0.072-0.36-0.144-0.576-0.144v-0.504c0.576,0.072,1.08,0.144,1.512,0.36
				c0.721,0.432,1.08,1.08,1.08,2.088c0,0.792-0.288,1.368-0.863,1.728c-0.36,0.216-0.865,0.432-1.44,0.504l2.52,3.744
				c0.145,0.288,0.576,0.432,1.152,0.504v0.288h-1.728L83.808,39.312L83.808,39.312z M99.072,33.696
				c-0.432,0.072-0.72,0.144-0.864,0.288c-0.144,0.216-0.216,0.72-0.216,1.44v7.416l0,0l-5.688-7.92H92.16v5.616
				c0,0.72,0.072,1.224,0.289,1.44c0.144,0.288,0.504,0.432,0.936,0.432v0.288H90.72v-0.288c0.504,0,0.792-0.216,0.937-0.648
				c0.071-0.144,0.071-0.576,0.071-1.224v-6.192c-0.216-0.288-0.359-0.504-0.504-0.576c-0.072,0-0.288-0.072-0.504-0.072v-0.216
				h1.656l5.184,7.272v-5.328c0-0.72-0.072-1.224-0.288-1.44c-0.144-0.144-0.432-0.216-0.936-0.288v-0.216h2.735V33.696
				L99.072,33.696z M108.072,32.112c0,0.288-0.216,0.504-0.647,0.576l-2.521,0.576v-0.36l2.377-1.08
				c0.144-0.072,0.287-0.072,0.431-0.072C107.928,31.752,108.072,31.896,108.072,32.112L108.072,32.112z M110.52,33.768
				c-0.36,0-0.647,0.072-0.792,0.144c-0.216,0.216-0.433,0.576-0.792,1.152l-2.088,3.384v2.592c0,0.504,0.071,0.864,0.288,1.08
				c0.216,0.144,0.575,0.288,1.152,0.288v0.288h-3.601v-0.288c0.576,0,0.936-0.144,1.08-0.36c0.216-0.216,0.288-0.576,0.288-1.224
				V38.52l-1.728-3.024c-0.433-0.72-0.792-1.224-1.08-1.512c-0.216-0.144-0.36-0.288-0.577-0.288c-0.071,0-0.144,0-0.215,0
				c-0.072,0.072-0.072,0.072-0.145,0.072v-0.288h3.312v0.288c-0.359,0-0.575,0-0.72,0.072c-0.216,0.072-0.288,0.216-0.288,0.36
				s0.072,0.36,0.217,0.648l1.872,3.024l1.871-3.168c0.145-0.216,0.145-0.36,0.145-0.504c0-0.288-0.217-0.432-0.721-0.432v-0.288
				h2.521V33.768z"/>
			<path fill="#8D2D44" d="M83.808,33.479v0.504c-0.288-0.072-0.648-0.072-0.936-0.072c-0.36,0-0.577,0.072-0.648,0.072
				c-0.145,0.072-0.216,0.288-0.216,0.504v3.456c0.72,0,1.368-0.072,1.8-0.144v1.512l-0.721-1.008l-1.079,0.072v2.664
				c0,0.504,0.144,0.864,0.287,1.08c0.217,0.144,0.505,0.288,1.009,0.288v0.288h-3.24v-0.288c0.432,0,0.792-0.144,0.936-0.36
				c0.145-0.216,0.217-0.576,0.217-1.152v-5.76c0-0.504-0.072-0.864-0.217-1.08c-0.144-0.144-0.504-0.288-0.936-0.36v-0.216h3.313
				C83.52,33.479,83.665,33.479,83.808,33.479L83.808,33.479z M72.865,42.84v-0.36c0.792,0,1.439-0.36,2.015-1.008
				c0.648-0.792,1.009-1.944,1.009-3.384c0-1.512-0.36-2.664-1.009-3.528c-0.575-0.648-1.296-0.936-2.015-0.936v-0.36
				c1.079,0,1.943,0.432,2.663,1.224c0.864,0.864,1.224,2.088,1.224,3.6c0,1.44-0.359,2.592-1.151,3.456
				C74.879,42.408,73.944,42.84,72.865,42.84z"/>
			<path fill="#8D2D44" d="M72.865,33.264v0.36l0,0c-0.793,0-1.44,0.288-2.017,0.936c-0.72,0.864-1.008,2.016-1.008,3.528
				c0,1.44,0.288,2.592,0.936,3.384c0.576,0.648,1.296,1.008,2.089,1.008l0,0v0.36l0,0c-1.153,0-2.089-0.432-2.809-1.296
				c-0.792-0.864-1.152-2.016-1.152-3.456c0-1.512,0.433-2.736,1.225-3.6C70.848,33.696,71.785,33.264,72.865,33.264L72.865,33.264
				L72.865,33.264z M50.184,42.84v-0.36c0.792,0,1.439-0.36,2.016-1.008c0.648-0.792,1.008-1.944,1.008-3.384
				c0-1.512-0.359-2.664-1.079-3.528c-0.576-0.648-1.225-0.936-1.944-0.936v-0.36c1.008,0,1.944,0.432,2.664,1.224
				c0.792,0.864,1.224,2.088,1.224,3.6c0,1.44-0.36,2.592-1.152,3.456C52.2,42.408,51.264,42.84,50.184,42.84L50.184,42.84z
				 M65.879,42.696h-3.599v-0.288c0.359,0,0.647-0.072,0.719-0.072c0.145-0.072,0.217-0.216,0.217-0.36
				c0-0.216-0.505-1.008-1.656-2.376l-1.296-1.584l-0.648,0.72v2.448c0,0.432,0.072,0.792,0.288,0.936
				c0.145,0.144,0.504,0.288,1.008,0.288v0.288h-3.384v-0.288c0.505,0,0.864-0.144,1.08-0.288c0.144-0.216,0.216-0.576,0.216-1.152
				V34.92c0-0.504-0.144-0.864-0.287-1.008c-0.145-0.072-0.504-0.144-1.009-0.216v-0.216h3.384v0.216
				c-0.575,0.072-0.863,0.144-1.008,0.288c-0.216,0.144-0.288,0.432-0.288,0.936v3.312c1.44-1.512,2.376-2.52,2.809-3.024
				C62.785,34.704,63,34.344,63,34.056c0-0.144-0.071-0.216-0.144-0.216c-0.145-0.072-0.36-0.072-0.648-0.144v-0.216h3.097v0.216
				c-0.217,0.072-0.432,0.072-0.647,0.072c-0.145,0-0.361,0.072-0.505,0.216c-0.216,0.072-0.504,0.36-0.792,0.648l-2.52,2.808
				l3.024,3.672c0.431,0.504,0.792,0.864,1.079,1.08c0.288,0.144,0.576,0.216,0.936,0.216V42.696z"/>
			<path fill="#8D2D44" d="M50.184,33.264v0.36h-0.072c-0.72,0-1.367,0.288-1.944,0.936c-0.719,0.864-1.08,2.016-1.08,3.528
				c0,1.44,0.361,2.592,1.009,3.384c0.575,0.648,1.224,1.008,2.016,1.008h0.072v0.36h-0.072c-1.079,0-2.016-0.432-2.736-1.296
				c-0.792-0.864-1.151-2.016-1.151-3.456c0-1.512,0.359-2.736,1.225-3.6c0.719-0.792,1.655-1.224,2.663-1.224H50.184L50.184,33.264
				z M40.32,38.592v-0.504c1.152-0.144,1.729-0.864,1.729-2.088c0-1.08-0.576-1.728-1.729-2.016v-0.504
				c0.721,0.072,1.225,0.288,1.656,0.576c0.647,0.432,1.008,1.08,1.008,1.872s-0.288,1.368-0.72,1.872
				C41.833,38.232,41.184,38.448,40.32,38.592z"/>
			<path fill="#8D2D44" d="M40.32,33.479v0.504c-0.287-0.072-0.72-0.072-1.152-0.072c-0.215,0-0.359,0-0.432,0.072
				c-0.071,0.072-0.144,0.216-0.144,0.504v3.6c0.287,0.072,0.648,0.072,1.008,0.072c0.288,0,0.504,0,0.72-0.072v0.504
				c-0.216,0-0.432,0-0.648,0c-0.504,0-0.863,0-1.079,0v2.448c0,0.504,0.144,0.864,0.287,1.08c0.217,0.216,0.577,0.288,1.009,0.288
				v0.288h-3.24v-0.288c0.504,0,0.792-0.144,0.936-0.432c0.145-0.144,0.217-0.576,0.217-1.08v-5.904
				c0-0.432-0.072-0.792-0.217-0.936c-0.144-0.144-0.504-0.288-0.936-0.36v-0.216h3.168C39.96,33.479,40.176,33.479,40.32,33.479
				L40.32,33.479z M17.64,39.312V37.8c0.216-0.072,0.359-0.072,0.432-0.144c0.937-0.288,1.368-0.864,1.368-1.8
				c0-0.864-0.432-1.44-1.151-1.728c-0.217-0.072-0.433-0.144-0.648-0.144v-0.504c0.648,0.072,1.151,0.144,1.512,0.36
				c0.792,0.432,1.152,1.08,1.152,2.088c0,0.792-0.288,1.368-0.864,1.728c-0.36,0.216-0.864,0.432-1.44,0.504l2.521,3.744
				c0.145,0.288,0.504,0.432,1.151,0.504v0.288h-1.728L17.64,39.312L17.64,39.312z M28.224,32.112c0,0.288-0.216,0.504-0.648,0.576
				l-2.52,0.504v-0.288l2.376-1.08c0.144-0.072,0.288-0.072,0.359-0.072C28.08,31.752,28.224,31.824,28.224,32.112L28.224,32.112z
				 M28.44,42.696h-3.6v-0.216c0.575,0,0.936-0.144,1.151-0.288c0.145-0.216,0.289-0.576,0.289-1.08v-5.976
				c0-0.504-0.145-0.864-0.361-1.08c-0.144-0.144-0.504-0.216-1.079-0.288v-0.216h3.6v0.216c-0.504,0-0.864,0.144-1.08,0.288
				S27,34.632,27,35.136v5.976c0,0.576,0.145,0.936,0.36,1.08s0.576,0.288,1.08,0.288V42.696z"/>
			<path fill="#8D2D44" d="M4.248,33.696c-0.504,0.072-0.864,0.144-1.008,0.288C3.024,34.2,2.952,34.56,2.952,35.136v4.968
				c0,1.152-0.288,1.944-0.792,2.376c-0.288,0.216-0.648,0.36-1.08,0.36c-0.36,0-0.648-0.072-0.864-0.36
				C0.072,42.336,0,42.192,0,41.976c0.072-0.36,0.216-0.504,0.504-0.504c0.216,0,0.432,0.216,0.504,0.504
				c0.144,0.36,0.288,0.504,0.36,0.504c0.504,0,0.792-0.36,0.792-1.152v-6.192c0-0.576-0.144-0.864-0.288-1.08
				c-0.216-0.216-0.504-0.288-1.008-0.36v-0.216h3.384V33.696L4.248,33.696z M17.64,33.479v0.504
				c-0.216-0.072-0.576-0.072-0.864-0.072c-0.36,0-0.576,0.072-0.647,0.072c-0.145,0.072-0.217,0.288-0.217,0.504v3.456
				c0.721,0,1.296-0.072,1.729-0.144v1.512l-0.648-1.008l-1.08,0.072v2.664c0,0.504,0.072,0.864,0.288,1.08
				c0.145,0.144,0.504,0.288,1.008,0.288v0.288h-3.239v-0.288c0.432,0,0.792-0.144,0.936-0.36c0.145-0.216,0.216-0.576,0.216-1.152
				v-5.76c0-0.504-0.071-0.864-0.287-1.08c-0.145-0.144-0.433-0.288-0.864-0.36v-0.216h3.313
				C17.424,33.479,17.568,33.479,17.64,33.479L17.64,33.479z M10.873,42.696H7.344v-0.288c0.576,0,0.936-0.072,1.08-0.288
				c0.216-0.144,0.287-0.504,0.287-1.008v-6.048c0-0.504-0.071-0.864-0.287-1.008c-0.144-0.216-0.504-0.288-1.08-0.288v-0.288h3.528
				v0.288c-0.504,0-0.864,0.072-1.081,0.216c-0.216,0.216-0.359,0.576-0.359,1.08v6.048c0,0.504,0.144,0.864,0.359,1.08
				c0.217,0.144,0.577,0.216,1.081,0.216V42.696z"/>
		</g>
		<polygon fill="#8D2D44" points="18.936,31.752 17.496,32.904 16.56,32.904 15.048,31.752 15.84,31.752 16.992,32.472 
			18.216,31.752 		"/>
	</g>
	<g>
		<path fill="#FED479" d="M37.512,2.16h7.416v11.16l1.872,0.648l-1.872,0.648v11.16h-7.416v-1.368h6.12V3.528h-6.12V2.16
			L37.512,2.16z M37.512,23.256h4.968V9.504c0-0.576-0.072-2.304-1.872-3.744c-0.863-0.648-2.159-1.008-3.096-1.08v1.08
			c2.159,0.504,3.24,1.656,3.24,3.672c0,2.304-1.081,3.6-3.24,4.032v0.864c1.584-0.144,2.736-0.648,3.456-1.44
			c0.216-0.216,0.36-0.432,0.504-0.648v10.08h-3.96V23.256z"/>
		<path fill="#FED479" d="M32.833,0L32.833,0l0.791,2.16h3.889v1.368h-4.68V0L32.833,0z M37.512,25.776h-3.96l-0.72,2.16l0,0v-3.528
			h4.68V25.776L37.512,25.776z M37.512,4.68v1.08c-0.36-0.072-0.721-0.144-1.152-0.144h-2.376c-0.072,0-0.144,0.072-0.216,0.072
			c-0.145,0.144-0.216,0.504-0.216,0.936v6.84c0.504,0.072,1.729,0.144,2.447,0.144c0.576,0,1.08-0.072,1.513-0.144v0.864
			c-0.36,0-0.864,0.072-1.296,0.072c-0.936,0-2.16,0-2.664-0.072v5.328c0,0.936,0.216,1.656,0.576,2.016
			c0.432,0.432,1.439,0.648,1.943,0.648h1.44v0.936h-4.68V4.68c1.512,0,3.023,0,4.536,0C37.44,4.68,37.512,4.68,37.512,4.68z"/>
		<path fill="#FED479" d="M25.919,2.16h6.192L32.833,0v3.528h-6.913V2.16L25.919,2.16z M32.833,27.936l-0.792-2.16h-6.121v-1.368
			h6.913V27.936L32.833,27.936z M32.833,4.68v18.576h-6.913V22.32h3.889c0.504,0,1.44-0.288,1.872-0.864
			c0.288-0.36,0.432-1.08,0.432-2.16V7.632c0-0.936-0.216-1.512-0.504-1.8c-0.071-0.072-0.216-0.144-0.359-0.216h-1.296
			c-0.073,0.072-0.145,0.144-0.217,0.216c-0.36,0.36-0.504,1.008-0.504,2.016v8.208c0,2.16-0.432,3.6-1.44,4.464
			c-0.503,0.36-1.08,0.648-1.872,0.648v-0.72c0.072,0,0.217,0,0.288,0c1.152,0.072,1.44-0.648,1.44-2.16V7.848
			c0-1.008-0.216-1.584-0.504-1.944C27,5.76,26.928,5.688,26.711,5.616h-0.792V4.68C28.224,4.68,30.528,4.68,32.833,4.68z"/>
		<path fill="#FED479" d="M20.736,2.16h5.184v1.368h-3.887v20.88h3.887v1.368h-5.184v-11.16l-1.871-0.648l1.871-0.648V2.16
			L20.736,2.16z M25.919,4.68c-0.936,0-1.8,0-2.735,0v18.576h2.735V22.32h-1.728v-1.728c0.36,0.432,0.72,0.576,1.44,0.576
			c0.144,0,0.216,0,0.287,0v-0.72c-1.583-0.216-1.728-1.296-1.728-1.8V5.616h1.728V4.68z"/>
	</g>
	<g>
		<path fill="#8D2D44" d="M3.6,49.608c-0.288,0.504-0.576,0.864-0.792,1.08v-0.216c0.288-0.288,0.504-0.576,0.72-1.008
			c0.216-0.36,0.36-0.648,0.36-0.792c0-0.072-0.072-0.144-0.144-0.216c-0.072-0.072-0.144-0.072-0.216-0.072
			c-0.288,0-0.504,0.072-0.72,0.288v-0.288c0.216-0.072,0.504-0.144,0.72-0.144c0.144,0,0.216,0,0.288,0.072
			c0.072,0,0.072,0.072,0.144,0.144l0.36-1.008v-0.144c0-0.072,0-0.144-0.072-0.144c0,0-0.072,0-0.144,0
			c-0.072-0.072-0.072-0.072-0.144-0.072c-0.072,0-0.072,0-0.072-0.072c0,0,0.072-0.072,0.288-0.072c0.144,0,0.36-0.072,0.504-0.144
			c0,0,0.072,0,0.144-0.072h0.072l0,0v0.144l-1.152,3.816v0.144c0,0.072,0,0.072,0.072,0.072c0.072,0,0.144-0.072,0.216-0.144
			c0.072-0.072,0.144-0.144,0.216-0.288C4.32,50.4,4.32,50.328,4.392,50.328c0-0.072,0.072-0.072,0.072-0.072h0.072
			c0,0.072-0.072,0.072-0.072,0.144c-0.072,0.144-0.216,0.36-0.432,0.576c-0.216,0.216-0.432,0.36-0.576,0.36
			S3.24,51.264,3.24,51.048c0-0.144,0.072-0.36,0.144-0.648C3.528,49.968,3.6,49.68,3.6,49.608z"/>
		<path fill="#8D2D44" d="M2.808,50.688c-0.072,0.072-0.144,0.144-0.144,0.144c-0.36,0.36-0.648,0.504-0.936,0.504
			c-0.144,0-0.288-0.072-0.36-0.216c-0.144-0.144-0.144-0.36-0.144-0.576c0-0.216,0-0.432,0.144-0.72
			c0.072-0.216,0.216-0.36,0.36-0.576c0.216-0.288,0.504-0.576,0.864-0.72c0.072-0.072,0.144-0.072,0.216-0.144v0.288
			c-0.072,0-0.144,0.072-0.216,0.144c-0.36,0.288-0.576,0.648-0.72,1.008c-0.072,0.144-0.144,0.288-0.144,0.432
			c0,0.072-0.072,0.216-0.072,0.288c0,0.288,0.144,0.432,0.36,0.432c0.144,0,0.432-0.144,0.792-0.504l0,0V50.688z"/>
	</g>
	<g>
		<path fill="#8D2D44" d="M10.369,49.464c-0.289,0.36-0.433,0.576-0.504,0.648c-0.145,0.216-0.289,0.432-0.433,0.576v-0.216
			c0.216-0.288,0.504-0.576,0.72-0.936c0.217-0.36,0.36-0.576,0.36-0.648c0-0.072,0-0.144,0-0.216c0-0.216-0.144-0.288-0.36-0.288
			c-0.216,0-0.504,0.072-0.72,0.288v-0.288c0.071,0,0.144,0,0.144-0.072c0.216,0,0.36-0.072,0.576-0.072c0.144,0,0.217,0,0.36,0.072
			c0.071,0.072,0.071,0.144,0.145,0.144c0-0.072,0-0.144,0.071-0.216c0,0,0.072-0.072,0.216-0.072h0.144l0.073,0.072v0.072
			l-0.721,2.16c0,0.144-0.071,0.216-0.071,0.36l0.071,0.072c0.072,0,0.144-0.072,0.217-0.144c0.071-0.072,0.144-0.144,0.216-0.216
			c0.071-0.072,0.071-0.144,0.144-0.216c0-0.072,0.071-0.072,0.071-0.072h0.073c0,0,0,0,0,0.072c0,0-0.073,0.144-0.145,0.288
			c-0.072,0.072-0.144,0.216-0.288,0.288c-0.071,0.072-0.145,0.144-0.288,0.216c-0.145,0.144-0.288,0.216-0.36,0.216
			c-0.144,0-0.215-0.072-0.215-0.216c0-0.072,0-0.144,0-0.216c0-0.072,0.071-0.072,0.071-0.144L10.369,49.464z"/>
		<path fill="#8D2D44" d="M9.432,50.688c-0.072,0.072-0.144,0.144-0.288,0.216c-0.288,0.288-0.504,0.432-0.72,0.432
			c-0.216,0-0.288-0.072-0.432-0.216c-0.072-0.144-0.144-0.288-0.144-0.504c0-0.36,0.144-0.72,0.432-1.152
			c0.215-0.36,0.431-0.648,0.792-0.864c0.145-0.072,0.217-0.144,0.36-0.216v0.288c-0.072,0-0.072,0-0.144,0.072
			C9.072,48.96,8.784,49.32,8.64,49.752c-0.072,0.072-0.145,0.216-0.145,0.36c-0.071,0.144-0.071,0.216-0.144,0.36v0.072
			c0,0.144,0.072,0.216,0.144,0.288c0.072,0.072,0.145,0.144,0.216,0.144c0.145,0,0.36-0.144,0.721-0.504l0,0V50.688z"/>
	</g>
	<g>
		<path fill="#8D2D44" d="M15.624,50.04L15.624,50.04c0.36-0.576,0.721-1.008,1.08-1.368c0.288-0.288,0.648-0.432,0.937-0.432
			c0.071,0,0.216,0.072,0.288,0.144C18,48.456,18,48.528,18,48.672c0,0,0,0.072,0,0.144c0,0.072-0.071,0.144-0.071,0.216
			l-0.504,1.296c0,0.072-0.072,0.144-0.072,0.288c-0.071,0.072-0.071,0.144-0.071,0.216c0,0.072,0.071,0.072,0.144,0.072
			c0.071,0,0.144,0,0.287-0.144c0.145-0.144,0.217-0.216,0.288-0.36c0.072,0,0.072-0.072,0.072-0.072
			c0.072-0.072,0.072-0.072,0.072-0.072c0.072,0,0.072,0.072,0.072,0.072s0,0.072-0.072,0.072c-0.216,0.288-0.433,0.576-0.648,0.72
			c-0.144,0.144-0.288,0.216-0.432,0.216c-0.145,0-0.288-0.144-0.288-0.288s0.072-0.288,0.144-0.432c0-0.144,0.072-0.36,0.217-0.648
			l0.216-0.72c0.072-0.072,0.072-0.216,0.144-0.288c0-0.072,0-0.144,0-0.216c0-0.144-0.071-0.216-0.215-0.216
			c-0.145,0-0.361,0.144-0.648,0.36c-0.217,0.216-0.433,0.504-0.648,0.864c-0.216,0.288-0.36,0.576-0.504,0.936
			c-0.072,0.144-0.072,0.216-0.144,0.36c-0.072,0.144-0.145,0.216-0.288,0.216c-0.072,0-0.145-0.072-0.145-0.072s0,0,0-0.072v-0.072
			l0.576-2.016c0,0,0.072-0.072,0.072-0.144c0-0.072,0-0.144,0-0.144c0-0.072,0-0.144-0.072-0.144c-0.144,0-0.288,0.144-0.576,0.432
			c0,0,0,0.072-0.071,0.144c0,0,0,0.072-0.072,0.072c0,0,0,0-0.072-0.072l0.072-0.072c0.216-0.288,0.359-0.504,0.576-0.648
			c0.144-0.144,0.287-0.216,0.432-0.216c0.216,0,0.288,0.144,0.288,0.36c0,0.144-0.072,0.288-0.072,0.432L15.624,50.04L15.624,50.04
			z M17.064,47.808l0.864-0.792c0.071,0,0.144-0.072,0.144-0.072c0.072,0,0.145,0,0.217,0c0,0,0.071,0,0.071,0.072l-0.071,0.072
			l-0.072,0.072l-0.936,0.72c0,0.072-0.073,0.072-0.073,0.072c-0.071,0-0.144,0-0.216,0s-0.144,0-0.144,0s0-0.072-0.072-0.144
			l-0.36-0.648v-0.072c-0.071-0.072-0.071-0.072-0.071-0.072c0-0.072,0.071-0.072,0.071-0.072h0.072c0.072,0,0.145,0,0.145,0
			c0.071,0,0.071,0.072,0.144,0.144L17.064,47.808z"/>
	</g>
	<g>
		<path fill="#8D2D44" d="M23.472,48.24c0.288,0,0.576,0.144,0.792,0.36c0.216,0.216,0.288,0.576,0.288,0.936
			c0,0.504-0.145,0.936-0.576,1.296c-0.288,0.216-0.576,0.36-0.792,0.432V51.12c0.216-0.144,0.432-0.36,0.576-0.648
			c0.288-0.36,0.359-0.792,0.359-1.152c0-0.288,0-0.504-0.144-0.648c-0.072-0.216-0.216-0.288-0.504-0.288
			c-0.072,0-0.216,0-0.288,0.072v-0.144C23.256,48.24,23.329,48.24,23.472,48.24z"/>
		<path fill="#8D2D44" d="M23.184,51.264c-0.144,0-0.288,0.072-0.432,0.072c-0.288,0-0.504-0.144-0.72-0.36
			c-0.217-0.216-0.361-0.576-0.361-0.936c0-0.504,0.217-0.864,0.577-1.224c0.288-0.288,0.575-0.504,0.936-0.504v0.144
			c-0.288,0.072-0.504,0.288-0.647,0.576c-0.288,0.36-0.36,0.792-0.36,1.224c0,0.288,0.072,0.504,0.144,0.648
			c0.145,0.216,0.288,0.288,0.504,0.288c0.145,0,0.217-0.072,0.36-0.072V51.264z"/>
	</g>
	<path fill="#8D2D44" d="M28.8,48.816c0-0.072,0.072-0.072,0.072-0.144c0-0.072-0.072-0.072-0.145-0.072
		c-0.071,0-0.288,0.144-0.576,0.432c0,0.072,0,0.072,0,0.072c-0.072,0.072-0.072,0.072-0.072,0.072l-0.071-0.072
		c0.071-0.072,0.071-0.072,0.071-0.144c0.145-0.216,0.36-0.36,0.504-0.504c0.217-0.144,0.36-0.216,0.504-0.216
		c0.145,0,0.217,0.072,0.217,0.288c0,0.072,0,0.144-0.072,0.288L28.583,50.4c0,0.072,0,0.144,0,0.216c0,0,0,0.072-0.071,0.144
		c0,0.216,0.145,0.36,0.36,0.36c0.359,0,0.72-0.288,1.08-0.72c0.432-0.432,0.575-0.936,0.575-1.368c0-0.072,0-0.144-0.071-0.288
		c-0.072-0.072-0.072-0.216-0.072-0.288c0-0.072,0-0.144,0.072-0.216c0,0,0.071-0.072,0.144-0.072c0.071,0,0.145,0.072,0.145,0.144
		c0.071,0.072,0.071,0.216,0.071,0.36c0,0.576-0.216,1.152-0.648,1.728c-0.503,0.576-1.007,0.936-1.511,0.936
		c-0.145,0-0.288-0.072-0.433-0.144c-0.072-0.072-0.145-0.216-0.145-0.36c0-0.072,0-0.144,0-0.216
		c0.072-0.072,0.072-0.144,0.145-0.288L28.8,48.816z"/>
	<g>
		<path fill="#8D2D44" d="M34.919,48.816v-0.072c0-0.072,0-0.144-0.071-0.144c-0.072,0-0.145,0.072-0.145,0.144
			c-0.071,0-0.216,0.144-0.359,0.288c0,0.072-0.072,0.072-0.072,0.072C34.2,49.176,34.2,49.176,34.2,49.176
			c-0.071,0-0.071,0-0.071,0s0.071-0.072,0.071-0.144c0.072-0.072,0.072-0.072,0.072-0.072c0.144-0.216,0.36-0.36,0.504-0.504
			c0.216-0.144,0.36-0.216,0.432-0.216c0.145,0,0.217,0.072,0.217,0.216c0,0.072,0,0.144,0,0.216
			c-0.072,0.072-0.072,0.144-0.072,0.144l-0.576,1.872v0.072c0,0.072,0.072,0.144,0.072,0.144c0.071,0,0.144-0.072,0.288-0.144
			c0.071-0.144,0.216-0.288,0.288-0.432l0.071-0.072l0,0c0.072,0,0.072,0,0.072,0c0,0.072,0,0.072,0,0.072s0,0.072-0.072,0.072
			c-0.144,0.288-0.359,0.504-0.504,0.72c-0.216,0.144-0.359,0.216-0.504,0.216c-0.144,0-0.216-0.144-0.216-0.288
			c0.072-0.144,0.072-0.216,0.072-0.216c0-0.072,0-0.144,0.071-0.288L34.919,48.816L34.919,48.816z M35.064,47.736l0.576-0.648
			c0.144-0.144,0.216-0.216,0.288-0.216c0.071,0,0.071,0,0.144,0.072c0,0,0.072,0,0.072,0.072v0.072
			c0,0.072-0.072,0.216-0.216,0.288l-0.721,0.504c-0.144,0.072-0.144,0.072-0.216,0.072s-0.072,0-0.072-0.072c0,0,0,0,0-0.072
			C34.992,47.808,34.992,47.736,35.064,47.736z"/>
	</g>
	<g>
		<path fill="#8D2D44" d="M43.632,48.24L43.632,48.24c0.071,0,0.216,0,0.287,0c0.433,0,0.721,0.072,0.864,0.288
			c0.216,0.144,0.36,0.36,0.36,0.648c0,0.504-0.216,1.008-0.576,1.44c-0.287,0.288-0.648,0.504-0.936,0.648v-0.216
			c0.216-0.144,0.432-0.36,0.648-0.72c0.215-0.432,0.359-0.792,0.359-1.152c0-0.288-0.072-0.432-0.216-0.576
			s-0.36-0.216-0.576-0.216c-0.072,0-0.145,0-0.216,0.072V48.24z"/>
		<path fill="#8D2D44" d="M41.904,52.632c-0.144,0-0.288,0-0.432,0.072c-0.144,0-0.288,0-0.432,0c-0.072,0-0.072,0-0.072-0.072
			c0,0,0.072-0.072,0.216-0.072c0.145-0.072,0.288-0.072,0.36-0.144c0,0,0-0.072,0.071-0.144c0-0.072,0.072-0.144,0.072-0.216
			l1.08-3.384l-0.432,0.144l-0.145,0.072c-0.072-0.072-0.072-0.072-0.072-0.072c0-0.072,0.072-0.072,0.145-0.144l0.576-0.216
			l0.144-0.648c0-0.072,0.072-0.072,0.072-0.144c0,0,0,0,0.072,0H43.2c0.072,0,0.072,0,0.145,0c0.071,0,0.071,0,0.071,0.072v0.072
			l-0.144,0.504c0.144,0,0.216,0,0.36-0.072v0.216c-0.072,0-0.072,0-0.145,0s-0.216,0.072-0.288,0.072L42.624,50.4
			c0,0.072,0,0.144,0,0.144c0,0.144-0.071,0.144-0.071,0.216l0.071,0.072c0,0.144,0.072,0.144,0.145,0.216
			c0.072,0.072,0.216,0.072,0.36,0.072c0.144,0,0.359,0,0.504-0.072v0.216c-0.217,0-0.36,0.072-0.504,0.072
			c-0.217,0-0.505-0.144-0.648-0.288l-0.288,0.936l-0.072,0.288c0,0.072,0.072,0.144,0.072,0.144
			c0.072,0.072,0.216,0.072,0.288,0.072c0.144,0,0.216,0.072,0.216,0.144l0,0c0,0-0.072,0-0.144,0H41.904z"/>
	</g>
	<g>
		<path fill="#8D2D44" d="M50.184,48.24c0.36,0,0.576,0.144,0.792,0.36c0.288,0.216,0.36,0.576,0.36,0.936
			c0,0.504-0.217,0.936-0.648,1.296c-0.216,0.216-0.504,0.36-0.792,0.432V51.12c0.288-0.144,0.504-0.36,0.648-0.648
			c0.216-0.36,0.359-0.792,0.359-1.152c0-0.288-0.071-0.504-0.144-0.648c-0.072-0.216-0.288-0.288-0.504-0.288
			c-0.145,0-0.216,0-0.36,0.072v-0.144C50.041,48.24,50.112,48.24,50.184,48.24z"/>
		<path fill="#8D2D44" d="M49.896,51.264c-0.144,0-0.216,0.072-0.359,0.072c-0.288,0-0.576-0.144-0.721-0.36
			c-0.288-0.216-0.359-0.576-0.359-0.936c0-0.504,0.144-0.864,0.576-1.224c0.216-0.288,0.575-0.504,0.863-0.504v0.144
			c-0.216,0.072-0.432,0.288-0.647,0.576c-0.216,0.36-0.36,0.792-0.36,1.224c0,0.288,0.072,0.504,0.216,0.648
			c0.072,0.216,0.288,0.288,0.433,0.288c0.144,0,0.287-0.072,0.359-0.072V51.264z"/>
	</g>
	<path fill="#8D2D44" d="M55.728,49.968c0.288-0.576,0.576-1.008,0.792-1.296s0.433-0.432,0.647-0.432
		c0.217,0,0.289,0.144,0.289,0.36c0,0.072,0,0.144-0.072,0.216c-0.072,0.072-0.144,0.144-0.217,0.144
		c-0.071,0-0.144-0.072-0.215-0.144c0-0.144-0.072-0.144-0.072-0.144c-0.145,0-0.432,0.288-0.793,0.864
		c-0.359,0.648-0.575,1.152-0.719,1.512c0,0.072,0,0.144-0.073,0.144c0,0-0.071,0.072-0.144,0.072c-0.144,0-0.144-0.072-0.216-0.072
		c0,0,0,0,0-0.072v-0.072l0.647-2.16c0.073,0,0.073-0.072,0.073-0.144c0-0.072-0.073-0.144-0.073-0.144
		c-0.071,0-0.144,0-0.215,0.072c-0.073,0.072-0.217,0.216-0.36,0.432c0,0,0,0-0.072,0.072l0,0c-0.071,0-0.071,0-0.071,0l0.071-0.144
		c0.144-0.288,0.359-0.504,0.576-0.648c0.145-0.072,0.216-0.144,0.36-0.144c0.071,0,0.071,0.072,0.144,0.144
		c0.071,0.072,0.071,0.144,0.071,0.288v0.216L55.728,49.968z"/>
	<g>
		<path fill="#8D2D44" d="M62.785,49.464c-0.217,0.36-0.36,0.576-0.433,0.648c-0.145,0.216-0.288,0.432-0.504,0.576v-0.216
			c0.288-0.288,0.504-0.576,0.792-0.936c0.216-0.36,0.288-0.576,0.288-0.648C63,48.816,63,48.744,63,48.672
			c0-0.216-0.144-0.288-0.432-0.288c-0.216,0-0.432,0.072-0.72,0.288v-0.288c0.071,0,0.144,0,0.216-0.072
			c0.144,0,0.36-0.072,0.504-0.072s0.288,0,0.36,0.072c0.071,0.072,0.144,0.144,0.144,0.144c0.072-0.072,0.072-0.144,0.072-0.216
			c0.072,0,0.145-0.072,0.216-0.072h0.144c0.072,0,0.072,0.072,0.072,0.072v0.072l-0.647,2.16c-0.072,0.144-0.072,0.216-0.072,0.36
			c0,0,0,0.072,0.072,0.072c0,0,0.071-0.072,0.144-0.144c0.145-0.072,0.217-0.144,0.288-0.216c0-0.072,0.072-0.144,0.072-0.216
			c0.071-0.072,0.071-0.072,0.144-0.072l0,0c0,0,0,0,0.072,0.072c0,0-0.072,0.144-0.216,0.288c-0.072,0.072-0.144,0.216-0.216,0.288
			c-0.072,0.072-0.217,0.144-0.36,0.216c-0.145,0.144-0.288,0.216-0.36,0.216c-0.144,0-0.215-0.072-0.215-0.216
			c0-0.072,0.071-0.144,0.071-0.216c0-0.072,0-0.072,0.072-0.144L62.785,49.464z"/>
		<path fill="#8D2D44" d="M61.848,50.688c-0.072,0.072-0.144,0.144-0.216,0.216c-0.288,0.288-0.576,0.432-0.864,0.432
			c-0.145,0-0.288-0.072-0.36-0.216c-0.071-0.144-0.144-0.288-0.144-0.504c0-0.36,0.144-0.72,0.359-1.152
			c0.217-0.36,0.505-0.648,0.864-0.864c0.145-0.072,0.288-0.144,0.36-0.216v0.288c0,0-0.072,0-0.072,0.072
			c-0.288,0.216-0.576,0.576-0.792,1.008c0,0.072-0.072,0.216-0.144,0.36c0,0.144-0.072,0.216-0.072,0.36v0.072
			c0,0.144,0,0.216,0.072,0.288c0.071,0.072,0.144,0.144,0.216,0.144c0.216,0,0.504-0.144,0.792-0.504l0,0V50.688z"/>
	</g>
	<g>
		<path fill="#8D2D44" d="M69.408,49.608c-0.288,0.504-0.575,0.864-0.792,1.08v-0.216c0.288-0.288,0.504-0.576,0.792-1.008
			c0.216-0.36,0.288-0.648,0.288-0.792c0-0.072,0-0.144-0.072-0.216c-0.071-0.072-0.216-0.072-0.287-0.072
			c-0.217,0-0.504,0.072-0.721,0.288v-0.288c0.288-0.072,0.504-0.144,0.792-0.144c0.072,0,0.145,0,0.216,0.072
			c0.072,0,0.145,0.072,0.145,0.144l0.36-1.008v-0.144c0-0.072,0-0.144-0.072-0.144c0,0-0.072,0-0.145,0
			c0-0.072-0.071-0.072-0.144-0.072s-0.072,0-0.072-0.072c0,0,0.072-0.072,0.288-0.072c0.145,0,0.36-0.072,0.504-0.144
			c0.072,0,0.072,0,0.145-0.072c0.072,0,0.072,0,0.072,0c0.071,0,0.071,0,0.071,0v0.144l-1.224,3.816v0.144
			c0,0.072,0,0.072,0.071,0.072c0.072,0,0.145-0.072,0.217-0.144c0.071-0.072,0.216-0.144,0.288-0.288
			c0-0.072,0.071-0.144,0.071-0.144c0.072-0.072,0.072-0.072,0.072-0.072c0.072,0,0.072,0,0.072,0c0,0.072,0,0.072-0.072,0.144
			c-0.072,0.144-0.216,0.36-0.36,0.576c-0.288,0.216-0.504,0.36-0.647,0.36c-0.145,0-0.216-0.072-0.216-0.288
			c0-0.144,0.071-0.36,0.144-0.648C69.336,49.968,69.408,49.68,69.408,49.608z"/>
		<path fill="#8D2D44" d="M68.616,50.688c-0.071,0.072-0.071,0.144-0.144,0.144c-0.36,0.36-0.648,0.504-0.864,0.504
			s-0.359-0.072-0.432-0.216s-0.144-0.36-0.144-0.576c0-0.216,0.071-0.432,0.144-0.72c0.072-0.216,0.216-0.36,0.36-0.576
			c0.287-0.288,0.575-0.576,0.863-0.72c0.072-0.072,0.145-0.072,0.216-0.144v0.288c-0.071,0-0.144,0.072-0.216,0.144
			c-0.359,0.288-0.576,0.648-0.72,1.008c-0.072,0.144-0.072,0.288-0.144,0.432c0,0.072,0,0.216,0,0.288
			c0,0.288,0.071,0.432,0.287,0.432c0.217,0,0.432-0.144,0.792-0.504l0,0V50.688z"/>
	</g>
	<path fill="#8D2D44" d="M75.816,48.24c0.217,0,0.433,0.072,0.504,0.072c0.145,0.072,0.217,0.216,0.217,0.288
		c0,0.072,0,0.072-0.072,0.144c-0.072,0-0.145,0-0.216,0c-0.072,0-0.145,0-0.145,0c-0.071-0.072-0.144-0.072-0.216-0.144
		c0-0.072-0.072-0.144-0.072-0.144c-0.071-0.072-0.145-0.072-0.145-0.072c-0.287,0-0.575,0.216-0.863,0.576
		c-0.359,0.432-0.504,0.792-0.504,1.224c0,0.216,0.072,0.432,0.145,0.576c0.144,0.144,0.359,0.216,0.575,0.216
		c0.144,0,0.36-0.072,0.576-0.144c0.145-0.072,0.288-0.216,0.433-0.36c0.071-0.144,0.144-0.216,0.216-0.216c0,0.072,0,0.072,0,0.072
		c0,0.072,0,0.072-0.072,0.144c-0.144,0.216-0.36,0.432-0.505,0.504c-0.287,0.216-0.575,0.36-0.863,0.36s-0.504-0.144-0.721-0.36
		c-0.144-0.216-0.287-0.432-0.287-0.792c0-0.432,0.216-0.936,0.648-1.296C74.879,48.456,75.384,48.24,75.816,48.24z"/>
	<g>
		<path fill="#8D2D44" d="M81.072,47.448c0.072-0.072,0.072-0.144,0.145-0.216c0.072,0,0.144-0.072,0.144-0.072
			c0.072,0,0.144,0.072,0.144,0.072c0.072,0.072,0.072,0.072,0.072,0.144c0,0.144,0,0.216-0.072,0.36
			c-0.071,0.072-0.144,0.072-0.287,0.072c0,0-0.072,0-0.145,0c0-0.072,0-0.144,0-0.216C81.072,47.52,81.072,47.52,81.072,47.448
			L81.072,47.448z M80.711,48.816v-0.072c0-0.072,0-0.144,0-0.144c-0.071,0-0.144,0.072-0.216,0.144
			c-0.071,0-0.215,0.144-0.288,0.288c-0.071,0.072-0.071,0.072-0.144,0.072c0,0.072-0.072,0.072-0.072,0.072h-0.072
			c0.072,0,0.072-0.072,0.072-0.144c0.072-0.072,0.072-0.072,0.072-0.072c0.217-0.216,0.36-0.36,0.504-0.504
			c0.217-0.144,0.36-0.216,0.504-0.216c0.145,0,0.145,0.072,0.145,0.216c0,0.072,0,0.144,0,0.216c0,0.072-0.072,0.144-0.072,0.144
			l-0.504,1.872l-0.072,0.072c0.072,0.072,0.072,0.144,0.144,0.144c0,0,0.145-0.072,0.217-0.144
			c0.071-0.144,0.216-0.288,0.288-0.432c0.072,0,0.072-0.072,0.072-0.072s0,0,0.071,0l0,0c0,0.072,0,0.072,0,0.072V50.4
			c-0.216,0.288-0.36,0.504-0.575,0.72c-0.217,0.144-0.36,0.216-0.433,0.216c-0.145,0-0.216-0.144-0.216-0.288s0-0.216,0-0.216
			c0-0.072,0.071-0.144,0.071-0.288L80.711,48.816z"/>
	</g>
	<path fill="#8D2D44" d="M87.696,50.544c0-0.072,0.072-0.072,0.072-0.072c0.072,0,0.144,0.144,0.288,0.36
		c0.144,0.216,0.359,0.36,0.576,0.36c0.144,0,0.287-0.072,0.432-0.144c0.144-0.144,0.217-0.288,0.217-0.36
		c0-0.216-0.145-0.36-0.361-0.576c-0.144-0.144-0.215-0.216-0.359-0.36c-0.145-0.144-0.216-0.216-0.288-0.36
		C88.2,49.32,88.2,49.248,88.2,49.104c0-0.288,0.145-0.504,0.36-0.648s0.432-0.216,0.721-0.216c0.071,0,0.215,0,0.431,0.072
		c0.145,0,0.288,0.072,0.288,0.144v0.072V48.6l-0.071,0.216c0,0.072,0,0.072-0.072,0.072c-0.145-0.144-0.288-0.216-0.432-0.288
		c-0.072-0.144-0.217-0.216-0.36-0.216c-0.145,0-0.288,0.072-0.359,0.144c-0.072,0.072-0.145,0.144-0.145,0.288
		s0.072,0.216,0.145,0.288c0.071,0.144,0.215,0.288,0.432,0.504c0.359,0.288,0.504,0.576,0.504,0.864
		c0,0.144-0.072,0.288-0.288,0.504c-0.071,0.072-0.145,0.144-0.36,0.216c-0.144,0.072-0.359,0.144-0.504,0.144
		c-0.144,0-0.359-0.072-0.576-0.144c-0.216-0.072-0.288-0.216-0.288-0.36L87.696,50.544z"/>
	<path fill="#8D2D44" d="M92.016,50.688c0.071,0,0.071,0,0.144,0.072c0.072,0.072,0.072,0.144,0.072,0.216
		c0,0.072,0,0.144-0.072,0.216c-0.072,0.072-0.144,0.144-0.287,0.144c-0.072,0-0.072-0.072-0.145-0.072
		c0-0.072-0.071-0.144-0.071-0.216c0-0.072,0.071-0.144,0.144-0.216C91.873,50.76,91.944,50.688,92.016,50.688z"/>
	<path fill="#8D2D44" d="M97.488,49.968c0.288-0.576,0.576-1.008,0.864-1.296c0.216-0.288,0.433-0.432,0.576-0.432
		c0.216,0,0.36,0.144,0.36,0.36c0,0.072-0.072,0.144-0.145,0.216c0,0.072-0.072,0.144-0.145,0.144c-0.144,0-0.215-0.072-0.215-0.144
		c-0.073-0.144-0.073-0.144-0.145-0.144c-0.145,0-0.433,0.288-0.792,0.864c-0.36,0.648-0.576,1.152-0.648,1.512
		c0,0.072-0.071,0.144-0.071,0.144c-0.072,0-0.145,0.072-0.217,0.072c-0.071,0-0.144-0.072-0.144-0.072
		c-0.072,0-0.072,0-0.072-0.072c0.072,0,0.072-0.072,0.072-0.072l0.647-2.16c0,0,0-0.072,0-0.144c0-0.072,0-0.144-0.071-0.144
		c-0.072,0-0.145,0-0.216,0.072c-0.072,0.072-0.145,0.216-0.288,0.432c-0.072,0-0.072,0-0.072,0.072h-0.072c0,0,0,0-0.072,0
		l0.072-0.144c0.216-0.288,0.36-0.504,0.576-0.648c0.144-0.072,0.288-0.144,0.36-0.144s0.144,0.072,0.144,0.144
		c0.072,0.072,0.072,0.144,0.072,0.288v0.216L97.488,49.968z"/>
	<path fill="#8D2D44" d="M100.512,50.688c0.071,0,0.145,0,0.145,0.072c0.071,0.072,0.071,0.144,0.071,0.216
		c0,0.072,0,0.144-0.071,0.216c-0.073,0.072-0.145,0.144-0.288,0.144c-0.073,0-0.073-0.072-0.145-0.072c0-0.072,0-0.144,0-0.216
		c0-0.072,0-0.144,0.071-0.216C100.369,50.76,100.44,50.688,100.512,50.688z"/>
	<g>
		<path fill="#8D2D44" d="M106.848,48.24c0.288,0,0.576,0.144,0.792,0.36c0.216,0.216,0.288,0.576,0.288,0.936
			c0,0.504-0.144,0.936-0.576,1.296c-0.288,0.216-0.576,0.36-0.792,0.432V51.12c0.216-0.144,0.432-0.36,0.576-0.648
			c0.288-0.36,0.359-0.792,0.359-1.152c0-0.288,0-0.504-0.144-0.648c-0.071-0.216-0.216-0.288-0.504-0.288
			c-0.072,0-0.216,0-0.288,0.072v-0.144C106.632,48.24,106.705,48.24,106.848,48.24z"/>
		<path fill="#8D2D44" d="M106.56,51.264c-0.145,0-0.288,0.072-0.432,0.072c-0.288,0-0.505-0.144-0.721-0.36
			c-0.216-0.216-0.359-0.576-0.359-0.936c0-0.504,0.216-0.864,0.575-1.224c0.288-0.288,0.576-0.504,0.937-0.504v0.144
			c-0.288,0.072-0.504,0.288-0.648,0.576c-0.288,0.36-0.359,0.792-0.359,1.224c0,0.288,0.071,0.504,0.144,0.648
			c0.145,0.216,0.288,0.288,0.504,0.288c0.145,0,0.216-0.072,0.36-0.072V51.264z"/>
	</g>
	<path fill="#8D2D44" d="M109.295,50.688c0.073,0,0.145,0,0.217,0.072c0,0.072,0.071,0.144,0.071,0.216
		c0,0.072-0.071,0.144-0.144,0.216c-0.071,0.072-0.145,0.144-0.216,0.144c-0.072,0-0.145-0.072-0.145-0.072
		c-0.071-0.072-0.071-0.144-0.071-0.216c0-0.072,0-0.144,0.071-0.216C109.152,50.76,109.224,50.688,109.295,50.688z"/>
</g>
</svg>
